<?xml version="1.0" encoding="utf-8"?>
<!-- Generator: Adobe Illustrator 15.0.0, SVG Export Plug-In  -->
<!DOCTYPE svg PUBLIC "-//W3C//DTD SVG 1.1//EN" "http://www.w3.org/Graphics/SVG/1.1/DTD/svg11.dtd" [
	<!ENTITY ns_flows "http://ns.adobe.com/Flows/1.0/">
]>
<svg version="1.1"
	 xmlns="http://www.w3.org/2000/svg" xmlns:xlink="http://www.w3.org/1999/xlink" xmlns:a="http://ns.adobe.com/AdobeSVGViewerExtensions/3.0/"
	 x="0px" y="0px" width="1000px" height="1000px" viewBox="-211.307 -4.36 1000 1000"
	 enable-background="new -211.307 -4.36 1000 1000" xml:space="preserve">
<defs>
</defs>
<path fill="#1A8AC1" d="M414.502,119.469c0,0,1.169,1.047,3.294,3.065c33.329,31.655,301.345,302.116-43.491,506.546H155.23
	c0,0-229.122-92.066-130.64-301.088c0,0,53.261-92.453,56.276-142.698c0,0,22.109,28.135,25.123,103.506
	c0,0,151.743-181.66,117.578-288.799c0,0,130.638,47.617,176.865,232.523C400.432,232.523,440.63,214.434,414.502,119.469z"/>
<path fill="#FFFFFF" d="M155.372,631.921h220.079c0,0,114.563-172.65-94.465-373.538c0,0,13.066,110.635-51.248,177.965
	c0,0,4.019-60.297-18.09-91.446c0,0-19.095,78.381-49.241,111.546C162.407,456.448,102.111,520.994,155.372,631.921z"/>
<path fill="#1A8AC1" d="M546.498,839.338c-1.73,6.43-8.343,10.247-14.772,8.524L41.074,716.393
	c-6.433-1.724-10.251-8.336-8.527-14.769l9.713-36.249c1.724-6.434,8.336-10.252,14.769-8.525l490.656,131.469
	c6.433,1.724,10.247,8.333,8.523,14.769L546.498,839.338z"/>
<path fill="#1A8AC1" d="M556.208,701.625c1.724,6.433-2.091,13.045-8.523,14.769L57.028,847.863
	c-6.432,1.723-13.045-2.095-14.769-8.524l-9.713-36.251c-1.724-6.436,2.094-13.045,8.527-14.769L531.725,656.85
	c6.43-1.727,13.042,2.092,14.772,8.525L556.208,701.625z"/>
</svg>
