<?xml version="1.0" encoding="utf-8"?>
<!-- Generator: Adobe Illustrator 15.0.0, SVG Export Plug-In  -->
<!DOCTYPE svg PUBLIC "-//W3C//DTD SVG 1.1//EN" "http://www.w3.org/Graphics/SVG/1.1/DTD/svg11.dtd" [
	<!ENTITY ns_flows "http://ns.adobe.com/Flows/1.0/">
]>
<svg version="1.1"
	 xmlns="http://www.w3.org/2000/svg" xmlns:xlink="http://www.w3.org/1999/xlink" xmlns:a="http://ns.adobe.com/AdobeSVGViewerExtensions/3.0/"
	 x="0px" y="0px" width="1000px" height="1000px" viewBox="-49.369 914.887 1000 1000"
	 enable-background="new -49.369 914.887 1000 1000" xml:space="preserve">
<defs>
</defs>
<path fill="#009BDB" stroke="#FFFFFF" stroke-width="5" stroke-miterlimit="10" d="M987.835,458.696
	c0,251.949-204.247,456.191-456.2,456.191S75.444,710.645,75.444,458.696C75.444,206.742,279.682,2.5,531.635,2.5
	S987.835,206.742,987.835,458.696z"/>
<path fill="#1A8AC1" stroke="#FFFFFF" stroke-width="5" stroke-miterlimit="10" d="M898.761,1434.385
	c0,247.504-200.638,448.135-448.127,448.135C203.138,1882.52,2.5,1681.889,2.5,1434.385c0-247.489,200.638-448.127,448.134-448.127
	C698.123,986.258,898.761,1186.896,898.761,1434.385z"/>
<path fill="#FFFFFF" d="M552.304,1112.304c0,0,1.063,0.978,3.001,2.854C585.736,1144.63,830.431,1396.4,515.6,1586.7H315.585
	c0,0-209.184-85.688-119.281-280.272c0,0,48.632-86.071,51.383-132.845c0,0,20.19,26.186,22.941,96.357
	c0,0,138.536-169.107,107.342-268.846c0,0,119.272,44.325,161.486,216.459C539.457,1217.553,576.161,1200.71,552.304,1112.304z"/>
<path fill="#1A8AC1" d="M315.714,1589.348h200.933c0,0,104.591-160.717-86.245-347.729c0,0,11.929,102.992-46.79,165.672
	c0,0,3.667-56.124-16.515-85.119c0,0-17.43,72.957-44.955,103.839C322.142,1426.01,267.091,1486.088,315.714,1589.348z"/>
<path fill="#FFFFFF" d="M672.812,1782.443c-1.582,5.986-7.611,9.531-13.494,7.932l-447.961-122.386
	c-5.874-1.6-9.359-7.76-7.786-13.746l8.875-33.745c1.575-5.994,7.604-9.541,13.477-7.933l447.971,122.378
	c5.873,1.602,9.351,7.759,7.785,13.745L672.812,1782.443z"/>
<path fill="#FFFFFF" d="M681.679,1654.243c1.565,5.986-1.912,12.146-7.785,13.746l-447.971,122.386
	c-5.873,1.6-11.902-1.945-13.477-7.932l-8.875-33.755c-1.574-5.986,1.912-12.144,7.786-13.745l447.961-122.378
	c5.883-1.608,11.912,1.938,13.494,7.933L681.679,1654.243z"/>
</svg>
