<?xml version="1.0" encoding="utf-8"?>
<!-- Generator: Adobe Illustrator 15.0.0, SVG Export Plug-In  -->
<!DOCTYPE svg PUBLIC "-//W3C//DTD SVG 1.1//EN" "http://www.w3.org/Graphics/SVG/1.1/DTD/svg11.dtd" [
	<!ENTITY ns_flows "http://ns.adobe.com/Flows/1.0/">
]>
<svg version="1.1"
	 xmlns="http://www.w3.org/2000/svg" xmlns:xlink="http://www.w3.org/1999/xlink" xmlns:a="http://ns.adobe.com/AdobeSVGViewerExtensions/3.0/"
	 x="0px" y="0px" width="1000px" height="1000px" viewBox="-63.597 -63.327 1000 1000"
	 enable-background="new -63.597 -63.327 1000 1000" xml:space="preserve">
<defs>
</defs>
<path fill="#1A8AC1" stroke="#FFFFFF" stroke-width="5" stroke-miterlimit="10" d="M896.276,449.393
	c0,246.808-200.067,446.901-446.884,446.901S2.5,696.2,2.5,449.393C2.5,202.584,202.576,2.5,449.393,2.5
	S896.276,202.584,896.276,449.393z"/>
<path fill="#FFFFFF" d="M256.801,652.069c0,5.09-4.119,9.218-9.209,9.218h-38.235c-5.099,0-9.218-4.128-9.218-9.218V409.553
	c0-5.09,4.119-9.218,9.218-9.218h38.235c5.09,0,9.209,4.128,9.209,9.218V652.069z"/>
<path fill="#FFFFFF" d="M216.102,603.689c-8.814,0-15.963-4.128-15.963-9.217v-38.228c0-5.098,7.148-9.218,15.963-9.218H636.2
	c8.813,0,15.963,4.138,15.963,9.218v38.228c0,5.089-7.149,9.217-15.963,9.217H216.102z"/>
<path fill="#FFFFFF" d="M656.927,655.82c0,4.008-4.12,7.243-9.218,7.243h-38.218c-5.089,0-9.218-3.235-9.218-7.243V465.167
	c0-4,4.129-7.234,9.218-7.234h38.218c5.098,0,9.218,3.234,9.218,7.234V655.82z"/>
<path fill="#FFFFFF" d="M341.081,505.256c0,19.646-15.938,35.592-35.601,35.592c-19.646,0-35.583-15.946-35.583-35.592
	c0-19.661,15.938-35.592,35.583-35.592C325.143,469.664,341.081,485.595,341.081,505.256z"/>
<path fill="#FFFFFF" d="M574.482,502.965c0-4.224-3.433-7.673-7.664-7.673h-193.21c-4.239,0-7.673,3.449-7.673,7.673v26.04
	c0,4.239,3.434,7.689,7.673,7.689h193.21c4.231,0,7.664-3.45,7.664-7.689V502.965z"/>
<path fill="#FFFFFF" d="M161.053,404.936c3.598,3.596,11.381,1.647,17.396-4.36l254.396-254.403
	c6.008-6.008,7.964-13.801,4.359-17.389l-20.289-20.307c-3.596-3.587-11.389-1.639-17.396,4.369L145.115,367.241
	c-6.008,6.016-7.964,13.81-4.359,17.405L161.053,404.936z"/>
<path fill="#FFFFFF" d="M396.111,142.396c-3.604,3.604-1.459,11.569,4.773,17.817l264.066,264.059
	c6.231,6.239,14.205,8.386,17.817,4.781l20.289-20.29c3.597-3.604,1.459-11.586-4.789-17.817l-264.05-264.066
	c-6.248-6.232-14.221-8.377-17.809-4.773L396.111,142.396z"/>
</svg>
