<?xml version="1.0" encoding="utf-8"?>
<!-- Generator: Adobe Illustrator 15.0.0, SVG Export Plug-In  -->
<!DOCTYPE svg PUBLIC "-//W3C//DTD SVG 1.1//EN" "http://www.w3.org/Graphics/SVG/1.1/DTD/svg11.dtd" [
	<!ENTITY ns_flows "http://ns.adobe.com/Flows/1.0/">
]>
<svg version="1.1"
	 xmlns="http://www.w3.org/2000/svg" xmlns:xlink="http://www.w3.org/1999/xlink" xmlns:a="http://ns.adobe.com/AdobeSVGViewerExtensions/3.0/"
	 x="0px" y="0px" width="1000px" height="1000px" viewBox="-100.64 -59.807 1000 1000"
	 enable-background="new -100.64 -59.807 1000 1000" xml:space="preserve">
<defs>
</defs>
<path fill="#1A8AC1" d="M163.455,756.438c0,7.058-5.723,12.783-12.781,12.783H97.65c-7.061,0-12.783-5.726-12.783-12.783V420.067
	c0-7.058,5.723-12.783,12.783-12.783h53.023c7.058,0,12.781,5.726,12.781,12.783V756.438z"/>
<path fill="#1A8AC1" d="M107.012,689.33c-12.232,0-22.145-5.725-22.145-12.783v-53.023c0-7.063,9.913-12.783,22.145-12.783h582.654
	c12.228,0,22.141,5.726,22.141,12.783v53.023c0,7.059-9.913,12.783-22.141,12.783H107.012z"/>
<path fill="#1A8AC1" d="M718.418,761.631c0,5.552-5.721,10.049-12.783,10.049h-53.021c-7.061,0-12.783-4.497-12.783-10.049V497.213
	c0-5.55,5.723-10.047,12.783-10.047h53.021c7.063,0,12.783,4.497,12.783,10.047V761.631z"/>
<circle fill="#1A8AC1" cx="230.977" cy="552.802" r="49.364"/>
<path fill="#1A8AC1" d="M604.075,549.642c0-5.878-4.768-10.646-10.646-10.646H325.46c-5.88,0-10.646,4.768-10.646,10.646v36.113
	c0,5.876,4.766,10.646,10.646,10.646h267.969c5.878,0,10.646-4.77,10.646-10.646V549.642z"/>
<path fill="#1A8AC1" d="M30.646,413.667c4.992,4.992,15.795,2.287,24.129-6.051l352.84-352.841
	c8.336-8.333,11.046-19.139,6.054-24.131L385.527,2.502c-4.99-4.992-15.798-2.282-24.133,6.053L8.555,361.394
	c-8.333,8.338-11.045,19.144-6.053,24.136L30.646,413.667z"/>
<path fill="#1A8AC1" d="M356.669,49.538c-4.992,4.992-2.027,16.053,6.626,24.702l366.242,366.249
	c8.655,8.653,19.714,11.618,24.708,6.626l28.143-28.145c4.992-4.992,2.025-16.053-6.628-24.704L409.516,28.021
	c-8.653-8.651-19.712-11.618-24.704-6.626L356.669,49.538z"/>
</svg>
