<?xml version="1.0" encoding="utf-8"?>
<!-- Generator: Adobe Illustrator 15.0.0, SVG Export Plug-In  -->
<!DOCTYPE svg PUBLIC "-//W3C//DTD SVG 1.1//EN" "http://www.w3.org/Graphics/SVG/1.1/DTD/svg11.dtd" [
	<!ENTITY ns_flows "http://ns.adobe.com/Flows/1.0/">
]>
<svg version="1.1"
	 xmlns="http://www.w3.org/2000/svg" xmlns:xlink="http://www.w3.org/1999/xlink" xmlns:a="http://ns.adobe.com/AdobeSVGViewerExtensions/3.0/"
	 x="0px" y="0px" width="1000px" height="1000px" viewBox="-59.244 -122.83 1000 1000"
	 enable-background="new -59.244 -122.83 1000 1000" xml:space="preserve">
<defs>
</defs>
<path fill="#1A8AC1" stroke="#FFFFFF" stroke-width="3" stroke-miterlimit="10" d="M417.663,464.632h392.126
	c0,0,7.671,0.959,0-29.722C802.12,404.232,635.297,50.033,635.297,50.033s-27.804-27.269-46.02,0
	c-18.214,27.269-171.615,382.96-171.615,382.96S399.447,464.632,417.663,464.632z"/>
<path fill="#FFFFFF" stroke="#FFFFFF" stroke-width="3" stroke-miterlimit="10" d="M565.342,218.169
	c0,0,30.434-119.241,43.998-119.241c13.566,0,19.317,0,20.278,7.669c0.958,7.671,52.73,114.599,52.73,132.083
	c0,17.481-45.062-34.633-45.062-34.633l-21.092,21.434l-19.176-41.224L565.342,218.169z"/>
<path fill="#1A8AC1" stroke="#FFFFFF" stroke-width="9" stroke-miterlimit="10" d="M17.574,693.586h633.222
	c0,0,12.387,1.549,0-47.995c-12.384-49.541-281.774-621.52-281.774-621.52s-44.9-44.035-74.315,0
	C265.29,68.105,17.574,642.494,17.574,642.494S-11.842,693.586,17.574,693.586z"/>
<path fill="#FFFFFF" stroke="#FFFFFF" stroke-width="9" stroke-miterlimit="10" d="M256.053,295.585
	c0,0,49.149-192.557,71.054-192.557c21.906,0,31.194,0,32.743,12.387c1.546,12.384,85.151,185.059,85.151,213.289
	c0,28.229-72.766-55.926-72.766-55.926l-34.063,34.614l-30.962-66.572L256.053,295.585z"/>
</svg>
