<?xml version="1.0" encoding="utf-8"?>
<!-- Generator: Adobe Illustrator 15.0.0, SVG Export Plug-In  -->
<!DOCTYPE svg PUBLIC "-//W3C//DTD SVG 1.1//EN" "http://www.w3.org/Graphics/SVG/1.1/DTD/svg11.dtd" [
	<!ENTITY ns_flows "http://ns.adobe.com/Flows/1.0/">
]>
<svg version="1.1"
	 xmlns="http://www.w3.org/2000/svg" xmlns:xlink="http://www.w3.org/1999/xlink" xmlns:a="http://ns.adobe.com/AdobeSVGViewerExtensions/3.0/"
	 x="0px" y="0px" width="1000px" height="1000px" viewBox="-41.305 -18.622 1000 1000"
	 enable-background="new -41.305 -18.622 1000 1000" xml:space="preserve">
<defs>
</defs>
<path fill="#1A8AC1" stroke="#FFFFFF" stroke-width="5" stroke-miterlimit="10" d="M914.891,458.695
	c0,251.949-204.247,456.191-456.2,456.191S2.5,710.644,2.5,458.695C2.5,206.742,206.737,2.5,458.69,2.5
	S914.891,206.742,914.891,458.695z"/>
<path fill="#1A8AC1" stroke="#FFFFFF" stroke-width="20" stroke-miterlimit="10" d="M466.394,506.273h342.588
	c0,0,6.699,0.838,0-25.962c-6.706-26.801-152.45-336.256-152.45-336.256s-24.281-23.827-40.216,0
	c-15.898,23.822-149.922,334.581-149.922,334.581S450.477,506.273,466.394,506.273z"/>
<path fill="#009BDB" stroke="#FFFFFF" stroke-width="20" stroke-miterlimit="10" d="M595.419,290.944
	c0,0,26.581-104.172,38.436-104.172c11.854,0,16.877,0,17.714,6.698c0.847,6.703,46.067,100.123,46.067,115.396
	c0,15.274-39.36-30.255-39.36-30.255l-18.429,18.729l-16.753-36.02L595.419,290.944z"/>
<path fill="#1A8AC1" stroke="#FFFFFF" stroke-width="20" stroke-miterlimit="10" d="M116.842,706.302h553.234
	c0,0,10.814,1.354,0-41.928c-10.813-43.287-246.181-543.006-246.181-543.006s-39.236-38.47-64.927,0
	c-25.699,38.474-242.127,540.295-242.127,540.295S91.143,706.302,116.842,706.302z"/>
<path fill="none" stroke="#FFFFFF" stroke-width="20" stroke-miterlimit="10" d="M325.196,358.586c0,0,42.938-168.232,62.08-168.232
	c19.135,0,27.26,0,28.6,10.818c1.357,10.818,74.41,161.688,74.41,186.352c0,24.659-63.578-48.865-63.578-48.865l-29.764,30.243
	l-27.056-58.167L325.196,358.586z"/>
</svg>
