<?xml version="1.0" encoding="utf-8"?>
<!-- Generator: Adobe Illustrator 15.0.0, SVG Export Plug-In  -->
<!DOCTYPE svg PUBLIC "-//W3C//DTD SVG 1.1//EN" "http://www.w3.org/Graphics/SVG/1.1/DTD/svg11.dtd" [
	<!ENTITY ns_flows "http://ns.adobe.com/Flows/1.0/">
]>
<svg version="1.1"
	 xmlns="http://www.w3.org/2000/svg" xmlns:xlink="http://www.w3.org/1999/xlink" xmlns:a="http://ns.adobe.com/AdobeSVGViewerExtensions/3.0/"
	 x="0px" y="0px" width="1000px" height="1000px" viewBox="-116.831 -124.09 1000 1000"
	 enable-background="new -116.831 -124.09 1000 1000" xml:space="preserve">
<defs>
</defs>
<path fill="#1A8AC1" stroke="#FFFFFF" stroke-width="4" stroke-miterlimit="10" d="M783.301,392.651
	c0,215.749-174.899,390.648-390.653,390.648C176.9,783.3,2,608.4,2,392.651C2,176.899,176.9,2,392.648,2
	C608.402,2,783.301,176.899,783.301,392.651z"/>
<path fill="#FFFFFF" stroke="#FFFFFF" stroke-width="4" stroke-miterlimit="10" d="M397.963,599.048
	c0,0,145.688-195.608,146.807-253.728c1.117-58.122-29.441-123.945-73.403-141.33c-43.958-17.391-80.926-25.214-140.087-8.446
	c-59.157,16.765-89.417,99.478-79.358,152.012C261.982,400.089,397.963,599.048,397.963,599.048z"/>
<path fill="#1A8AC1" stroke="#FFFFFF" stroke-width="4" stroke-miterlimit="10" d="M454.124,316.552
	c0,33.952-27.521,61.472-61.476,61.472c-33.952,0-61.474-27.521-61.474-61.472c0-33.953,27.522-61.478,61.474-61.478
	C426.602,255.075,454.124,282.599,454.124,316.552z"/>
</svg>
